<svg width="599" height="487" viewBox="0 0 599 487" fill="none" xmlns="http://www.w3.org/2000/svg">
<rect x="1.34157" y="1.34157" width="312.581" height="484.308" rx="9.39101" fill="#FD0065" stroke="black" stroke-width="2.68315"/>
<path d="M313.922 46.9551V10.7326C313.922 5.54607 309.718 1.34157 304.531 1.34157H10.7326C5.54611 1.34157 1.34161 5.54607 1.34161 10.7326V97.9348C1.34161 103.126 5.52307 107.326 10.7051 107.326H99.8704C120.2 107.326 135.627 92.7059 150.856 77.5317C151.376 77.0138 151.895 76.4954 152.415 75.9771C159.434 68.9715 166.436 61.9841 173.798 56.6436C181.724 50.8943 190.196 46.9551 199.741 46.9551H199.956H200.172H200.389H200.607H200.826H201.045H201.266H201.488H201.71H201.934H202.158H202.384H202.61H202.837H203.065H203.294H203.524H203.754H203.986H204.218H204.452H204.686H204.921H205.157H205.393H205.631H205.869H206.108H206.348H206.589H206.83H207.073H207.316H207.56H207.805H208.05H208.296H208.543H208.791H209.04H209.289H209.539H209.79H210.042H210.294H210.547H210.801H211.055H211.31H211.566H211.822H212.08H212.338H212.596H212.855H213.115H213.376H213.637H213.899H214.162H214.425H214.689H214.953H215.218H215.484H215.75H216.017H216.285H216.553H216.822H217.091H217.361H217.632H217.903H218.174H218.446H218.719H218.993H219.266H219.541H219.816H220.091H220.367H220.644H220.921H221.198H221.476H221.755H222.034H222.313H222.593H222.874H223.154H223.436H223.718H224H224.283H224.566H224.849H225.133H225.418H225.703H225.988H226.274H226.56H226.847H227.133H227.421H227.708H227.996H228.285H228.574H228.863H229.152H229.442H229.732H230.023H230.314H230.605H230.897H231.189H231.481H231.773H232.066H232.359H232.652H232.946H233.24H233.534H233.829H234.123H234.418H234.714H235.009H235.305H235.601H235.897H236.193H236.49H236.787H237.084H237.381H237.679H237.976H238.274H238.572H238.871H239.169H239.467H239.766H240.065H240.364H240.663H240.963H241.262H241.562H241.861H242.161H242.461H242.761H243.061H243.361H243.662H243.962H244.262H244.563H244.864H245.164H245.465H245.766H246.067H246.368H246.668H246.969H247.27H247.571H247.872H248.173H248.474H248.775H249.076H249.377H249.678H249.979H250.28H250.581H250.882H251.183H251.484H251.784H252.085H252.385H252.686H252.986H253.287H253.587H253.887H254.187H254.487H254.787H255.087H255.386H255.686H255.985H256.284H256.583H256.882H257.181H257.48H257.778H258.076H258.374H258.672H258.97H259.268H259.565H259.862H260.159H260.456H260.752H261.048H261.344H261.64H261.936H262.231H262.526H262.821H263.116H263.41H263.704H263.998H264.291H264.584H264.877H265.17H265.462H265.754H266.045H266.337H266.628H266.918H267.209H267.499H267.788H268.078H268.366H268.655H268.943H269.231H269.518H269.805H270.092H270.378H270.664H270.95H271.235H271.519H271.803H272.087H272.37H272.653H272.936H273.218H273.499H273.78H274.061H274.341H274.62H274.9H275.178H275.456H275.734H276.011H276.288H276.564H276.84H277.115H277.389H277.663H277.937H278.21H278.482H278.754H279.025H279.296H279.566H279.835H280.104H280.372H280.64H280.907H281.174H281.44H281.705H281.97H282.234H282.497H282.76H283.022H283.283H283.544H283.804H284.064H284.323H284.581H284.838H285.095H285.351H285.606H285.861H286.115H286.368H286.62H286.872H287.123H287.373H287.623H287.872H288.12H288.367H288.614H288.859H289.104H289.348H289.592H289.834H290.076H290.317H290.557H290.797H291.035H291.273H291.51H291.746H291.981H292.216H292.449H292.682H292.914H293.145H293.375H293.604H293.832H294.059H294.286H294.512H294.736H294.96H295.183H295.405H295.626H295.846H296.065H296.283H296.5H296.717H296.932H297.146H297.36H297.572H297.784H297.994H298.204H298.412H298.619H298.826H299.031H299.236H299.439H299.641H299.843H300.043H300.242H300.44H300.638H300.834H301.029H301.222H301.415H301.607H301.798H301.987H302.176H302.363H302.549H302.734H302.918H303.101H303.283H303.463H303.643H303.821H303.998H304.174H304.349H304.523H304.695H304.866H305.037H305.205H305.373H305.54H305.705H305.869H306.032H306.193H306.354H306.513H306.671H306.827H306.983H307.137H307.29H307.441H307.592H307.741H307.889H308.035H308.18H308.324H308.467H308.608H308.748H308.887H309.024H309.16H309.294H309.428H309.56H309.69H309.819H309.947H310.074H310.199H310.322H310.445H310.566H310.685H310.803H310.92H311.035H311.149H311.261H311.372H311.482H311.59H311.697H311.802H311.906H312.008H312.109H312.208H312.306H312.402H312.497H312.591H312.683H312.773H312.862H312.949H313.035H313.119H313.202H313.283H313.363H313.441H313.518H313.593H313.666H313.738H313.808H313.877H313.922Z" fill="#FD0065" stroke="black" stroke-width="2.68315"/>
<path d="M9.39078 128.151V464.184C9.39078 469.371 13.5953 473.575 18.7818 473.575H257.577C262.763 473.575 266.968 469.371 266.968 464.184V68.4202C266.968 64.7128 263.975 61.7124 260.273 61.7124H260.2H260.126H260.052H259.978H259.903H259.828H259.753H259.678H259.602H259.526H259.45H259.373H259.297H259.219H259.142H259.064H258.986H258.908H258.83H258.751H258.672H258.592H258.513H258.433H258.353H258.272H258.191H258.11H258.029H257.948H257.866H257.784H257.701H257.619H257.536H257.452H257.369H257.285H257.201H257.117H257.032H256.947H256.862H256.777H256.691H256.605H256.519H256.433H256.346H256.259H256.172H256.085H255.997H255.909H255.821H255.732H255.643H255.554H255.465H255.376H255.286H255.196H255.105H255.015H254.924H254.833H254.742H254.65H254.558H254.466H254.374H254.281H254.189H254.095H254.002H253.909H253.815H253.721H253.626H253.532H253.437H253.342H253.247H253.151H253.056H252.96H252.863H252.767H252.67H252.573H252.476H252.378H252.281H252.183H252.085H251.986H251.888H251.789H251.69H251.59H251.491H251.391H251.291H251.191H251.09H250.99H250.889H250.788H250.686H250.585H250.483H250.381H250.278H250.176H250.073H249.97H249.867H249.764H249.66H249.556H249.452H249.348H249.243H249.138H249.033H248.928H248.823H248.717H248.612H248.505H248.399H248.293H248.186H248.079H247.972H247.865H247.757H247.649H247.542H247.433H247.325H247.216H247.108H246.999H246.889H246.78H246.67H246.561H246.451H246.34H246.23H246.119H246.009H245.898H245.786H245.675H245.563H245.451H245.339H245.227H245.115H245.002H244.889H244.776H244.663H244.55H244.436H244.322H244.208H244.094H243.98H243.865H243.751H243.636H243.521H243.405H243.29H243.174H243.058H242.942H242.826H242.709H242.593H242.476H242.359H242.242H242.125H242.007H241.889H241.772H241.653H241.535H241.417H241.298H241.179H241.061H240.941H240.822H240.703H240.583H240.463H240.343H240.223H240.103H239.982H239.862H239.741H239.62H239.499H239.377H239.256H239.134H239.012H238.89H238.768H238.646H238.523H238.4H238.278H238.155H238.031H237.908H237.785H237.661H237.537H237.413H237.289H237.165H237.04H236.916H236.791H236.666H236.541H236.416H236.291H236.165H236.039H235.914H235.788H235.661H235.535H235.409H235.282H235.156H235.029H234.902H234.775H234.647H234.52H234.392H234.264H234.137H234.009H233.88H233.752H233.624H233.495H233.366H233.238H233.109H232.979H232.85H232.721H232.591H232.461H232.332H232.202H232.072H231.941H231.811H231.681H231.55H231.419H231.288H231.157H231.026H230.895H230.764H230.632H230.5H230.369H230.237H230.105H229.973H229.84H229.708H229.575H229.443H229.31H229.177H229.044H228.911H228.778H228.644H228.511H228.377H228.244H228.11H227.976H227.842H227.708H227.573H227.439H227.305H227.17H227.035H226.9H226.765H226.63H226.495H226.36H226.225H226.089H225.953H225.818H225.682H225.546H225.41H225.274H225.138H225.001H224.865H224.728H224.592H224.455H224.318H224.181H224.044H223.907H223.77H223.633H223.495H223.358H223.22H223.082H222.945H222.807H222.669H222.531H222.392H222.254H222.116H221.977H221.839H221.7H221.562H221.423H221.284H221.145H221.006H220.867H220.728H220.588H220.449H220.309H220.17H220.03H219.891H219.751H219.611H219.471H219.331H219.191H219.051H218.911H218.77H218.63H218.489H218.349H218.208H218.067H217.927H217.786H217.645H217.504H217.363H217.222H217.081H216.939H216.798H216.657H216.515H216.374H216.232H216.09H215.949H215.807H215.665H215.523H215.381H215.239H215.097H214.955H214.813H214.67H214.528H214.386H214.243H214.101H213.958H213.816H213.673H213.53H213.388H213.245H213.102H212.959H212.816H212.673H212.53H212.387H212.244H212.1H211.957H211.814H211.67H211.527H211.384H211.24H211.097H210.953H210.809H210.666H210.522H210.378H210.234H210.091H209.947H209.803H209.659H209.515H209.371H209.227H209.083H208.939H208.794H208.65H208.506H208.362H208.217H208.073H207.929H207.784H207.64H207.496H207.351H207.207H207.062H206.917H206.773H206.628H206.484H206.339H206.194H206.05H205.905H205.76H205.615H205.471H205.326H205.181H205.036H204.891H204.746H204.601H204.457H204.312H204.167H204.022H203.877H203.732H203.587H203.442H203.297H203.152H203.007H202.861H202.716H202.571H202.426H202.281H202.136H201.991H201.846H201.701H201.556H201.41H201.265H201.12H200.975H200.83H200.685H200.54H200.394H200.249H200.104H199.959H199.814H199.669H199.524H199.378H199.233H198.943H198.798H198.653H198.508H198.363H198.073H197.928H197.782C189.475 61.7124 181.961 65.1135 174.673 70.3724C167.854 75.2931 161.344 81.755 154.634 88.4154C154.154 88.8919 153.673 89.3694 153.191 89.8474C138.884 104.029 123.479 118.76 102.916 118.76H102.745H102.575H102.404H102.233H102.062H101.891H101.72H101.548H101.376H101.204H101.032H100.86H100.687H100.515H100.342H100.169H99.996H99.8227H99.6492H99.4756H99.3018H99.1279H98.9538H98.7795H98.6051H98.4306H98.2559H98.081H97.906H97.7308H97.5555H97.38H97.2044H97.0287H96.8528H96.6767H96.5006H96.3242H96.1478H95.9712H95.7945H95.6176H95.4406H95.2635H95.0862H94.9088H94.7313H94.5536H94.3759H94.198H94.02H93.8418H93.6635H93.4852H93.3066H93.128H92.9493H92.7704H92.5915H92.4124H92.2332H92.0539H91.8745H91.6949H91.5153H91.3356H91.1557H90.9758H90.7957H90.6156H90.4353H90.255H90.0746H89.894H89.7134H89.5327H89.3519H89.1709H88.9899H88.8089H88.6277H88.4464H88.2651H88.0836H87.9021H87.7206H87.5389H87.3571H87.1753H86.9934H86.8114H86.6293H86.4472H86.265H86.0827H85.9004H85.718H85.5355H85.353H85.1704H84.9877H84.805H84.6222H84.4394H84.2565H84.0735H83.8905H83.7074H83.5243H83.3411H83.1579H82.9746H82.7912H82.6079H82.4245H82.241H82.0575H81.8739H81.6903H81.5067H81.323H81.1393H80.9556H80.7718H80.588H80.4041H80.2202H80.0363H79.8524H79.6684H79.4845H79.3004H79.1164H78.9323H78.7482H78.5641H78.38H78.1959H78.0117H77.8275H77.6433H77.4591H77.2749H77.0907H76.9064H76.7222H76.538H76.3537H76.1694H75.9852H75.8009H75.6166H75.4324H75.2481H75.0638H74.8796H74.6953H74.5111H74.3268H74.1426H73.9584H73.7742H73.59H73.4058H73.2216H73.0375H72.8533H72.6692H72.4851H72.301H72.117H71.9329H71.7489H71.565H71.381H71.1971H71.0132H70.8293H70.6455H70.4617H70.2779H70.0942H69.9105H69.7268H69.5432H69.3596H69.1761H68.9926H68.8091H68.6257H68.4424H68.2591H68.0758H67.8926H67.7094H67.5263H67.3433H67.1603H66.9773H66.7945H66.6116H66.4289H66.2462H66.0635H65.881H65.6984H65.516H65.3336H65.1513H64.969H64.7869H64.6048H64.4227H64.2408H64.0589H63.8771H63.6954H63.5137H63.3322H63.1507H62.9693H62.788H62.6068H62.4256H62.2446H62.0636H61.8827H61.702H61.5213H61.3407H61.1602H60.9798H60.7995H60.6193H60.4391H60.2591H60.0792H59.8994H59.7197H59.5402H59.3607H59.1813H59.002H58.8229H58.6438H58.4649H58.2861H58.1074H57.9288H57.7504H57.572H57.3938H57.2157H57.0377H56.8599H56.6821H56.5045H56.3271H56.1497H55.9725H55.7954H55.6185H55.4417H55.265H55.0885H54.9121H54.7358H54.5597H54.3837H54.2079H54.0322H53.8566H53.6812H53.5059H53.3308H53.1559H52.9811H52.8064H52.6319H52.4576H52.2834H52.1093H51.9355H51.7617H51.5882H51.4148H51.2416H51.0685H50.8956H50.7229H50.5503H50.3779H50.2057H50.0336H49.8618H49.69H49.5185H49.3472H49.176H49.005H48.8342H48.6636H48.4931H48.3228H48.1528H47.9828H47.8131H47.6436H47.4743H47.3052H47.1362H46.9675H46.7989H46.6306H46.4624H46.2944H46.1267H45.9591H45.7917H45.6246H45.4576H45.2909H45.1243H44.958H44.7919H44.626H44.4603H44.2948H44.1295H43.9645H43.7996H43.635H43.4706H43.3064H43.1425H42.9787H42.8152H42.6519H42.4889H42.326H42.1634H42.001H41.8389H41.677H41.5153H41.3539H41.1927H41.0317H40.871H40.7105H40.5502H40.3902H40.2305H40.071H39.9117H39.7527H39.5939H39.4354H39.2771H39.1191H38.9613H38.8038H38.6465H38.4895H38.3328H38.1763H38.0201H37.8641H37.7084H37.553H37.3978H37.2429H37.0883H36.9339H36.7798H36.626H36.4725H36.3192H36.1662H36.0135H35.861H35.7089H35.557H35.4054H35.254H35.103H34.9523H34.8018H34.6516H34.5017H34.3521H34.2028H34.0538H33.9051H33.7566H33.6085H33.4607H33.3131H33.1659H33.019H32.8723H32.726H32.58H32.4342H32.2888H32.1437H31.9989H31.8544H31.7103H31.5664H31.4228H31.2796H31.1367H30.9941H30.8518H30.7098H30.5682H30.4269H30.2859H30.1452H30.0049H29.8649H29.7252H29.5858H29.4468H29.3081H29.1698H29.0318H28.8941H28.7567H28.6197H28.483H28.3467H28.2107H28.0751H27.9398H27.8048H27.6702H27.536H27.4021H27.2685H27.1353H27.0025H26.87H26.7378H26.606H26.4746H26.3436H26.2128H26.0825H25.9525H25.8229H25.6936H25.5648H25.4362H25.3081H25.1803H25.0529H24.9259H24.7992H24.6729H24.547H24.4215H24.2963H24.1715H24.0471H23.9231H23.7995H23.6763H23.5534H23.4309H23.3089H23.1872H23.0659H22.945H22.8244H22.7043H22.5846H22.4653H22.3463H22.2278H22.1097H21.992H21.8746H21.7577H21.6412H21.5251H21.4094H21.2941H21.1792H21.0647H20.9507H20.8371H20.7238H20.611H20.4986H20.3866H20.2751H20.164H20.0533H19.943H19.8331H19.7237H19.6147H19.5061H19.3979H19.2902H19.1829H19.0761H18.9697H18.8637H18.7581C13.5755 118.76 9.39078 122.961 9.39078 128.151Z" fill="#FD0065" stroke="black" stroke-width="2.68315"/>
<path d="M315.264 48.2966C315.264 48.2966 358.864 48.2966 395.757 48.2966C432.649 48.2966 454.114 108.483 496.373 108.483C527.545 108.483 567.477 108.483 586.284 108.483C592.211 108.483 596.989 113.288 596.989 119.215V474.917C596.989 480.844 592.184 485.649 586.256 485.649H315.264V48.2966Z" fill="#FD0065" stroke="black" stroke-width="2.68315"/>
<path d="M325.996 68.4202C325.996 63.9746 329.587 60.3708 334.033 60.3708C346.531 60.3708 371.77 60.3708 396.523 60.3708C431.308 60.3708 451.546 117.418 491.39 117.418C520.445 117.418 557.572 117.418 575.548 117.418C581.475 117.418 586.257 122.224 586.257 128.151V464.184C586.257 470.112 581.452 474.917 575.524 474.917H336.729C330.801 474.917 325.996 470.112 325.996 464.184V68.4202Z" fill="#FD0065" stroke="black" stroke-width="2.68315"/>
<rect x="280.384" y="46.9551" width="33.5393" height="438.694" fill="#FD0065" stroke="black" stroke-width="2.68315"/>
<rect x="280.384" y="65.7371" width="33.5393" height="399.789" fill="#FD0065" stroke="black" stroke-width="2.68315"/>
<rect x="280.384" y="85.8607" width="33.5393" height="363.566" fill="#FD0065" stroke="black" stroke-width="2.68315"/>
<g style="mix-blend-mode:multiply">
<rect x="279.042" y="48.2966" width="9.39101" height="438.694" fill="#DA00FD"/>
</g>
<ellipse cx="57.0157" cy="50.309" rx="39.5757" ry="39.5764" fill="#F4ECF6" stroke="black" stroke-width="2.68315"/>
<path d="M87.2007 50.309C87.2007 66.9799 73.6865 80.4944 57.0159 80.4944C40.3453 80.4944 26.8311 66.9799 26.8311 50.309C26.8311 33.638 40.3453 20.1236 57.0159 20.1236C73.6865 20.1236 87.2007 33.638 87.2007 50.309Z" fill="#CCFDFF" stroke="black" stroke-width="2.68315"/>
<circle cx="121.41" cy="23.4775" r="8.72023" fill="#ED0008" stroke="black" stroke-width="2.68315"/>
<circle opacity="0.5" cx="119.398" cy="21.4652" r="4.02472" fill="#FCFFFF"/>
<circle cx="146.9" cy="23.4775" r="8.72023" fill="#F7C878" stroke="black" stroke-width="2.68315"/>
<circle opacity="0.5" cx="144.887" cy="21.4652" r="4.02472" fill="#FCFFFF"/>
<circle cx="172.389" cy="23.4775" r="8.72023" fill="#44C359" stroke="black" stroke-width="2.68315"/>
<circle opacity="0.5" cx="170.377" cy="21.4652" r="4.02472" fill="#FCFFFF"/>
<path d="M37.5634 136.84H240.137C242.36 136.84 244.162 138.642 244.162 140.865V332.71C244.162 334.933 242.36 336.735 240.137 336.735H58.3785C56.0968 336.735 53.8932 335.904 52.1793 334.398L36.7305 320.822C34.7017 319.039 33.5387 316.468 33.5387 313.767V140.865C33.5387 138.642 35.3406 136.84 37.5634 136.84Z" fill="white" stroke="black" stroke-width="2.68315"/>
<path d="M202.574 311.916H226.722" stroke="black" stroke-width="2.68315" stroke-linecap="round"/>
<path d="M202.574 317.282H226.722" stroke="black" stroke-width="2.68315" stroke-linecap="round"/>
<path d="M202.574 322.648H226.722" stroke="black" stroke-width="2.68315" stroke-linecap="round"/>
<path d="M202.574 328.015H226.722" stroke="black" stroke-width="2.68315" stroke-linecap="round"/>
<rect x="57.6866" y="163.672" width="162.327" height="135.499" rx="4.02472" fill="#C4C4C4" stroke="black" stroke-width="2.68315"/>
<circle cx="128.789" cy="147.573" r="4.02472" fill="#ED0008" stroke="black" stroke-width="1.34157"/>
<circle opacity="0.5" cx="127.447" cy="146.231" r="1.34157" fill="#FCFFFF"/>
<circle cx="148.912" cy="147.573" r="4.02472" fill="#ED0008" stroke="black" stroke-width="1.34157"/>
<circle opacity="0.5" cx="147.57" cy="146.231" r="1.34157" fill="#FCFFFF"/>
<circle cx="65.7361" cy="317.953" r="8.04944" fill="#ED0008" stroke="black" stroke-width="2.68315"/>
<circle opacity="0.5" cx="63.0529" cy="315.27" r="2.68315" fill="#FCFFFF"/>
<rect x="73.7852" y="358.2" width="46.9551" height="5.36629" rx="2.68315" fill="#AA1720" stroke="black" stroke-width="2.68315"/>
<rect x="134.155" y="358.2" width="46.9551" height="5.36629" rx="2.68315" fill="#87A2C4" stroke="black" stroke-width="2.68315"/>
<circle cx="48.2958" cy="421.254" r="1.34157" fill="black"/>
<circle cx="28.1725" cy="421.254" r="1.34157" fill="black"/>
<circle cx="199.22" cy="459.489" r="4.69551" fill="#ED0008" stroke="black" stroke-width="1.34157"/>
<circle opacity="0.5" cx="197.655" cy="457.924" r="1.56517" fill="#FCFFFF"/>
<circle cx="211.965" cy="461.501" r="1.34157" fill="black"/>
<circle cx="220.014" cy="461.501" r="1.34157" fill="black"/>
<circle cx="228.063" cy="461.501" r="1.34157" fill="black"/>
<path fill-rule="evenodd" clip-rule="evenodd" d="M229.405 378.324C229.405 376.842 228.204 375.64 226.722 375.64H211.965C210.483 375.64 209.281 376.842 209.281 378.324V399.789C209.281 401.271 208.08 402.472 206.598 402.472L185.134 402.472C183.652 402.472 182.451 403.673 182.451 405.155V419.912C182.451 421.394 183.652 422.595 185.134 422.595H206.598C208.08 422.595 209.281 423.797 209.281 425.279V445.402C209.281 446.884 210.483 448.085 211.965 448.085H226.722C228.204 448.085 229.405 446.884 229.405 445.402V425.279C229.405 423.797 230.606 422.595 232.088 422.595H252.211C253.693 422.595 254.894 421.394 254.894 419.912V405.155C254.894 403.673 253.693 402.472 252.211 402.472L232.088 402.472C230.606 402.472 229.405 401.271 229.405 399.789V378.324Z" fill="#5A575B"/>
<path d="M252.211 402.472L252.211 401.13L252.211 402.472ZM185.134 402.472L185.134 401.13L185.134 402.472ZM206.598 402.472L206.598 403.813L206.598 402.472ZM211.965 376.982H226.722V374.299H211.965V376.982ZM210.623 399.789V378.324H207.94V399.789H210.623ZM185.134 403.813L206.598 403.813L206.598 401.13L185.134 401.13L185.134 403.813ZM183.792 419.912V405.155H181.109V419.912H183.792ZM206.598 421.254H185.134V423.937H206.598V421.254ZM210.623 445.402V425.279H207.94V445.402H210.623ZM226.722 446.744H211.965V449.427H226.722V446.744ZM228.064 425.279V445.402H230.747V425.279H228.064ZM252.211 421.254H232.088V423.937H252.211V421.254ZM253.553 405.155V419.912H256.236V405.155H253.553ZM232.088 403.813L252.211 403.813L252.211 401.13L232.088 401.13L232.088 403.813ZM228.064 378.324V399.789H230.747V378.324H228.064ZM232.088 401.13C231.347 401.13 230.747 400.53 230.747 399.789H228.064C228.064 402.012 229.865 403.813 232.088 403.813L232.088 401.13ZM256.236 405.155C256.236 402.932 254.434 401.13 252.211 401.13L252.211 403.813C252.952 403.813 253.553 404.414 253.553 405.155H256.236ZM252.211 423.937C254.434 423.937 256.236 422.135 256.236 419.912H253.553C253.553 420.653 252.952 421.254 252.211 421.254V423.937ZM230.747 425.279C230.747 424.538 231.347 423.937 232.088 423.937V421.254C229.865 421.254 228.064 423.056 228.064 425.279H230.747ZM226.722 449.427C228.945 449.427 230.747 447.625 230.747 445.402H228.064C228.064 446.143 227.463 446.744 226.722 446.744V449.427ZM207.94 445.402C207.94 447.625 209.742 449.427 211.965 449.427V446.744C211.224 446.744 210.623 446.143 210.623 445.402H207.94ZM206.598 423.937C207.339 423.937 207.94 424.538 207.94 425.279H210.623C210.623 423.056 208.821 421.254 206.598 421.254V423.937ZM181.109 419.912C181.109 422.135 182.911 423.937 185.134 423.937V421.254C184.393 421.254 183.792 420.653 183.792 419.912H181.109ZM185.134 401.13C182.911 401.13 181.109 402.932 181.109 405.155H183.792C183.792 404.414 184.393 403.813 185.134 403.813L185.134 401.13ZM207.94 399.789C207.94 400.53 207.339 401.13 206.598 401.13L206.598 403.813C208.821 403.813 210.623 402.012 210.623 399.789H207.94ZM226.722 376.982C227.463 376.982 228.064 377.583 228.064 378.324H230.747C230.747 376.101 228.945 374.299 226.722 374.299V376.982ZM211.965 374.299C209.742 374.299 207.94 376.101 207.94 378.324H210.623C210.623 377.583 211.224 376.982 211.965 376.982V374.299Z" fill="black"/>
<circle cx="219.343" cy="412.534" r="4.69551" fill="#585958" stroke="black" stroke-width="2.68315"/>
<circle cx="42.9299" cy="376.982" r="20.1236" fill="#575757" stroke="black" stroke-width="2.68315"/>
<rect x="76.4683" y="402.472" width="89.8838" height="44.2719" rx="2.68315" fill="#32CB65" stroke="black" stroke-width="2.68315"/>
<rect x="348.803" y="135.499" width="207.94" height="89.8854" rx="2.68315" fill="#575757" stroke="black" stroke-width="2.68315"/>
<circle cx="366.243" cy="331.369" r="4.02472" fill="#ED0008" stroke="black" stroke-width="1.34157"/>
<circle opacity="0.5" cx="364.901" cy="330.027" r="1.34157" fill="#FCFFFF"/>
<circle cx="387.708" cy="331.369" r="4.02472" fill="#ED0008" stroke="black" stroke-width="1.34157"/>
<circle opacity="0.5" cx="386.366" cy="330.027" r="1.34157" fill="#FCFFFF"/>
<rect x="449.419" y="327.344" width="45.6135" height="5.36629" rx="2.68315" fill="#575757" stroke="black" stroke-width="2.68315"/>
<rect x="504.422" y="327.344" width="45.6135" height="5.36629" rx="2.68315" fill="#575757" stroke="black" stroke-width="2.68315"/>
<circle cx="527.229" cy="368.933" r="20.1236" fill="#FACA64" stroke="black" stroke-width="2.68315"/>
<circle opacity="0.5" cx="525.887" cy="363.566" r="8.04944" fill="#FCFFFF"/>
<rect x="350.144" y="417.229" width="92.5668" height="36.2225" rx="2.68315" fill="#575759" stroke="black" stroke-width="2.68315"/>
<rect x="469.542" y="417.229" width="85.8591" height="36.2225" rx="2.68315" fill="#575759" stroke="black" stroke-width="2.68315"/>
<rect x="350.144" y="348.809" width="38.9056" height="33.5393" rx="2.68315" fill="white" stroke="black" stroke-width="2.68315"/>
<rect x="391.732" y="348.809" width="38.9056" height="33.5393" rx="2.68315" fill="white" stroke="black" stroke-width="2.68315"/>
<path d="M350.144 248.191C350.144 246.709 351.345 245.508 352.827 245.508H386.367C387.848 245.508 389.05 246.709 389.05 248.191V279.047H350.144V248.191Z" fill="#83BEFB" stroke="black" stroke-width="2.68315"/>
<path d="M391.732 248.191C391.732 246.709 392.933 245.508 394.415 245.508H427.955C429.437 245.508 430.638 246.709 430.638 248.191V279.047H391.732V248.191Z" fill="#83BEFB" stroke="black" stroke-width="2.68315"/>
<path d="M433.32 248.191C433.32 246.709 434.522 245.508 436.003 245.508H469.543C471.025 245.508 472.226 246.709 472.226 248.191V279.047H433.32V248.191Z" fill="#83BEFB" stroke="black" stroke-width="2.68315"/>
<path d="M474.908 248.191C474.908 246.709 476.109 245.508 477.591 245.508H511.131C512.613 245.508 513.814 246.709 513.814 248.191V279.047H474.908V248.191Z" fill="#83BEFB" stroke="black" stroke-width="2.68315"/>
<path d="M516.496 248.191C516.496 246.709 517.697 245.508 519.179 245.508H552.719C554.2 245.508 555.402 246.709 555.402 248.191V279.047H516.496V248.191Z" fill="#83BEFB" stroke="black" stroke-width="2.68315"/>
<path d="M350.144 280.389H389.05V311.245C389.05 312.727 387.848 313.928 386.367 313.928H352.827C351.345 313.928 350.144 312.727 350.144 311.245V280.389Z" fill="#83BEFB" stroke="black" stroke-width="2.68315"/>
<path d="M391.732 280.389H430.638V311.245C430.638 312.727 429.437 313.928 427.955 313.928H394.415C392.933 313.928 391.732 312.727 391.732 311.245V280.389Z" fill="#83BEFB" stroke="black" stroke-width="2.68315"/>
<path d="M433.32 280.389H472.226V311.245C472.226 312.727 471.025 313.928 469.543 313.928H436.003C434.522 313.928 433.32 312.727 433.32 311.245V280.389Z" fill="#83BEFB" stroke="black" stroke-width="2.68315"/>
<path d="M474.908 280.389H513.814V311.245C513.814 312.727 512.613 313.928 511.131 313.928H477.591C476.109 313.928 474.908 312.727 474.908 311.245V280.389Z" fill="#83BEFB" stroke="black" stroke-width="2.68315"/>
<path d="M516.496 280.389H555.402V311.245C555.402 312.727 554.2 313.928 552.719 313.928H519.179C517.697 313.928 516.496 312.727 516.496 311.245V280.389Z" fill="#83BEFB" stroke="black" stroke-width="2.68315"/>
</svg>
